<?xml version="1.0" standalone="no"?>
<!DOCTYPE svg PUBLIC "-//W3C//DTD SVG 20010904//EN"
 "http://www.w3.org/TR/2001/REC-SVG-20010904/DTD/svg10.dtd">
<svg version="1.0" xmlns="http://www.w3.org/2000/svg"
 width="240.000000pt" height="240.000000pt" viewBox="0 0 240.000000 240.000000"
 preserveAspectRatio="xMidYMid meet">
<metadata>
Created by potrace 1.14, written by Peter Selinger 2001-2017
</metadata>
<g transform="translate(0.000000,240.000000) scale(0.100000,-0.100000)"
fill="#000000" stroke="none">
<path d="M549 2075 c0 -14 0 -45 0 -70 0 -25 0 -64 0 -88 l1 -42 393 0 392 0
0 -210 0 -210 -392 -3 -391 -2 -4 -48 c-1 -26 -1 -76 2 -112 l5 -65 390 0 390
0 2 -445 c1 -245 2 -453 2 -463 1 -19 23 -19 201 -1 19 1 83 6 142 9 58 4 115
8 125 10 10 2 24 4 32 4 10 1 12 21 6 104 -4 56 -9 106 -12 110 -3 5 -53 5
-112 1 -58 -4 -117 -8 -131 -8 l-25 -1 0 778 0 777 -507 0 -508 0 -1 -25z"/>
</g>
</svg>
